<svg xmlns="http://www.w3.org/2000/svg" viewBox="0 0 160 160">
  <defs>
    <linearGradient id="fur" x1="0" x2="1" y1="0" y2="1">
      <stop offset="0%" stop-color="#f6c48f" />
      <stop offset="100%" stop-color="#d18c61" />
    </linearGradient>
  </defs>
  <circle cx="80" cy="80" r="70" fill="#fde8c1"/>
  <path d="M35 60 C20 20, 60 10, 70 50 Q80 20, 90 50 C100 10, 140 20, 125 60 Q138 95, 102 105 C112 130, 88 145, 80 125 C72 145, 48 130, 58 105 C22 95, 35 60, 35 60 Z" fill="url(#fur)"/>
  <path d="M53 70 Q65 45, 75 68" fill="#fce3b6"/>
  <path d="M107 70 Q95 45, 85 68" fill="#fce3b6"/>
  <circle cx="62" cy="85" r="10" fill="#2f2f2f"/>
  <circle cx="98" cy="85" r="10" fill="#2f2f2f"/>
  <circle cx="64" cy="87" r="4" fill="#fff"/>
  <circle cx="100" cy="87" r="4" fill="#fff"/>
  <path d="M72 106 Q80 112, 88 106" stroke="#a43d3d" stroke-width="4" fill="none" stroke-linecap="round"/>
  <path d="M80 95 C75 98, 85 98, 80 95" fill="#a43d3d"/>
  <path d="M54 60 C45 48, 44 32, 62 42" fill="#f6c48f"/>
  <path d="M106 60 C115 48, 116 32, 98 42" fill="#f6c48f"/>
</svg>
